<svg width="30" height="30" viewBox="0 0 30 30" fill="none" xmlns="http://www.w3.org/2000/svg">
<path d="M12.5404 25.1359H9.83952C9.60075 25.1359 9.37176 25.041 9.20293 24.8722C9.03409 24.7034 8.93924 24.4744 8.93924 24.2356V6.23004C8.93924 5.99127 9.03409 5.76228 9.20293 5.59344C9.37176 5.42461 9.60075 5.32976 9.83952 5.32976H12.5404C12.7791 5.32976 13.0081 5.42461 13.1769 5.59344C13.3458 5.76228 13.4406 5.99127 13.4406 6.23004V24.2356C13.4406 24.4744 13.3458 24.7034 13.1769 24.8722C13.0081 25.041 12.7791 25.1359 12.5404 25.1359Z" fill="#E1E1E6"/>
<path d="M20.6429 25.1359H17.942C17.7033 25.1359 17.4743 25.041 17.3054 24.8722C17.1366 24.7034 17.0417 24.4744 17.0417 24.2356V6.23004C17.0417 5.99127 17.1366 5.76228 17.3054 5.59344C17.4743 5.42461 17.7033 5.32976 17.942 5.32976H20.6429C20.8816 5.32976 21.1106 5.42461 21.2795 5.59344C21.4483 5.76228 21.5431 5.99127 21.5431 6.23004V24.2356C21.5431 24.4744 21.4483 24.7034 21.2795 24.8722C21.1106 25.041 20.8816 25.1359 20.6429 25.1359Z" fill="#E1E1E6"/>
</svg>
